<svg width="40" height="40" viewBox="0 0 40 40" fill="none" xmlns="http://www.w3.org/2000/svg">
<path fill-rule="evenodd" clip-rule="evenodd" d="M15.6076 11.625C15.6076 9.53252 17.3075 7.83266 19.4 7.83266C21.4925 7.83266 23.1924 9.53252 23.1924 11.625C23.1924 13.1541 22.2333 14.4124 20.9305 14.9513V17.8838C24.0497 17.9047 26.3572 17.9969 27.9602 18.0937C30.2221 18.2337 31.9799 19.9847 32.1649 22.3035C32.2838 23.7273 32.3896 25.7732 32.3896 28.4896C32.3896 31.206 32.2838 33.2519 32.1649 34.6757C31.9799 36.9945 30.2221 38.7455 27.9602 38.8855C26.2607 38.9948 23.6042 39.1007 19.4 39.1007C15.1958 39.1007 12.5393 38.9948 10.8398 38.8855C8.57806 38.7455 6.82019 36.9945 6.63515 34.6757C6.51612 33.2519 6.41042 31.206 6.41042 28.4896C6.41042 25.7732 6.51612 23.7273 6.63515 22.3035C6.82019 19.9847 8.57806 18.2337 10.8398 18.0937C12.4428 17.9969 14.7503 17.9047 17.8695 17.8838V14.9513C16.5667 14.4124 15.6076 13.1541 15.6076 11.625ZM19.4 20.4063C15.7887 20.4063 13.1965 20.5105 11.4655 20.6157C10.5528 20.6735 9.80865 21.4003 9.72583 22.3948C9.61748 23.7611 9.52153 25.6875 9.52153 28.4896C9.52153 31.2917 9.61748 33.2181 9.72583 34.5844C9.80865 35.579 10.5529 36.3057 11.4655 36.3635C13.1965 36.4687 15.7887 36.5729 19.4 36.5729C23.0113 36.5729 25.6035 36.4687 27.3345 36.3635C28.2472 36.3057 28.9914 35.579 29.0742 34.5844C29.1825 33.218 29.2785 31.2917 29.2785 28.4896C29.2785 25.6875 29.1825 23.7611 29.0742 22.3948C28.9914 21.4003 28.2472 20.6735 27.3345 20.6157C25.6035 20.5105 23.0113 20.4063 19.4 20.4063ZM16.1473 24.6632C16.1473 23.9477 15.5656 23.366 14.8501 23.366C14.1346 23.366 13.5529 23.9477 13.5529 24.6632V25.2952C13.5529 26.0107 14.1346 26.5924 14.8501 26.5924C15.5656 26.5924 16.1473 26.0107 16.1473 25.2952V24.6632ZM23.9499 23.366C24.6654 23.366 25.2471 23.9477 25.2471 24.6632V25.2952C25.2471 26.0107 24.6654 26.5924 23.9499 26.5924C23.2344 26.5924 22.6527 26.0107 22.6527 25.2952V24.6632C22.6527 23.9477 23.2344 23.366 23.9499 23.366ZM16.436 29.5683C15.9391 29.0524 15.1287 29.0182 14.5793 29.4735C14.0298 29.9288 13.9957 30.7392 14.4844 31.2635C15.6376 32.5111 17.4677 32.9903 19.0987 32.9903C20.7298 32.9903 22.5599 32.5111 23.7131 31.2635C24.2018 30.7392 24.1677 29.9288 23.6183 29.4735C23.0688 29.0182 22.2585 29.0524 21.7615 29.5683C21.2387 30.1292 20.2015 30.5292 19.0987 30.5292C17.996 30.5292 16.9588 30.1292 16.436 29.5683Z" fill="black"/>
</svg>
